<?xml version="1.0" standalone="no"?>
<!DOCTYPE svg PUBLIC "-//W3C//DTD SVG 20010904//EN"
 "http://www.w3.org/TR/2001/REC-SVG-20010904/DTD/svg10.dtd">
<svg version="1.0" xmlns="http://www.w3.org/2000/svg"
 width="24.000000pt" height="24.000000pt" viewBox="0 0 24.000000 24.000000"
 preserveAspectRatio="xMidYMid meet">

<g transform="translate(0.000000,24.000000) scale(0.100000,-0.100000)"
fill="#000000" stroke="none">
<path d="M40 205 c-10 -12 -10 -19 -2 -27 16 -16 15 -101 0 -116 -9 -9 -8 -16
5 -29 16 -16 18 -16 34 0 13 13 14 20 5 29 -15 15 -16 100 0 116 8 8 8 15 -2
27 -16 19 -24 19 -40 0z"/>
<path d="M129 204 c-10 -12 -9 -18 4 -32 11 -10 17 -12 17 -4 0 7 5 12 10 12
14 0 12 -104 -2 -118 -9 -9 -8 -16 5 -29 16 -16 18 -16 34 0 13 13 14 20 5 29
-7 7 -12 35 -12 63 0 42 -4 55 -24 73 -22 18 -26 19 -37 6z"/>
</g>
</svg>
