<?xml version="1.0" encoding="utf-8"?>
<!-- Generator: Adobe Illustrator 25.2.0, SVG Export Plug-In . SVG Version: 6.00 Build 0)  -->
<svg version="1.1" id="Layer_1" xmlns="http://www.w3.org/2000/svg" xmlns:xlink="http://www.w3.org/1999/xlink" x="0px" y="0px"
	 viewBox="0 0 171 36" style="enable-background:new 0 0 171 36;" xml:space="preserve">
<style type="text/css">
	.st0{fill-rule:evenodd;clip-rule:evenodd;fill:url(#SVGID_1_);}
	.st1{display:none;fill:#FFFFFF;}
	.st2{fill:#FFFFFF;}
	.st3{font-family:'Orbitron-Medium';}
	.st4{font-size:22px;}
	.st5{display:none;}
	.st6{display:inline;fill:url(#SVGID_2_);}
	.st7{display:inline;fill:url(#SVGID_3_);}
	.st8{display:inline;fill:url(#SVGID_4_);}
	.st9{display:inline;fill:url(#SVGID_5_);}
	.st10{display:inline;fill:url(#SVGID_6_);}
	.st11{display:inline;fill:url(#SVGID_7_);}
	.st12{display:inline;fill:url(#SVGID_8_);}
	.st13{display:inline;fill:url(#SVGID_9_);}
	.st14{display:inline;fill:url(#SVGID_10_);}
	.st15{display:inline;fill:url(#SVGID_11_);}
</style>
<linearGradient id="SVGID_1_" gradientUnits="userSpaceOnUse" x1="15" y1="35" x2="15" y2="5" gradientTransform="matrix(1 0 0 -1 0 38)">
	<stop  offset="0" style="stop-color:#877EFF"/>
	<stop  offset="0.4615" style="stop-color:#685DFF"/>
	<stop  offset="1" style="stop-color:#3121FF"/>
</linearGradient>
<path class="st0" d="M27.8,18c0,7.1-5.7,12.8-12.8,12.8C7.9,30.8,2.2,25.1,2.2,18S7.9,5.2,15,5.2C22.1,5.2,27.8,10.9,27.8,18z
	 M30,18c0,8.3-6.7,15-15,15C6.7,33,0,26.3,0,18C0,9.7,6.7,3,15,3C23.3,3,30,9.7,30,18z M23.3,11.3c0,0.9-0.7,1.6-1.6,1.6
	c-0.9,0-1.6-0.7-1.6-1.6s0.7-1.6,1.6-1.6C22.6,9.7,23.3,10.4,23.3,11.3z M10.5,19.2c0.7,2.5,3.2,4,5.7,3.3c2.5-0.7,4-3.2,3.3-5.7
	s-3.2-4-5.7-3.3S9.8,16.7,10.5,19.2z M8.4,19.8c1,3.6,4.7,5.8,8.4,4.8c3.6-1,5.8-4.7,4.8-8.4c-1-3.6-4.7-5.8-8.4-4.8
	C9.6,12.4,7.4,16.1,8.4,19.8z"/>
<path class="st1" d="M46.7,28.4c-1.5,0-2.9-0.3-4-0.8c-1.2-0.5-2.1-1.3-2.7-2.3c-0.7-1-1-2.2-1-3.7v-0.8h3.7v0.8
	c0,1.2,0.4,2.1,1.1,2.7c0.7,0.6,1.7,0.9,3,0.9c1.3,0,2.2-0.3,2.9-0.8c0.6-0.5,1-1.2,1-2c0-0.5-0.2-1-0.5-1.3
	c-0.3-0.3-0.8-0.6-1.4-0.8c-0.6-0.2-1.3-0.4-2.1-0.6l-0.7-0.1c-1.4-0.3-2.5-0.7-3.5-1.1c-1-0.5-1.7-1.1-2.2-1.8
	c-0.5-0.8-0.8-1.7-0.8-2.9s0.3-2.2,0.8-3.1c0.6-0.9,1.4-1.5,2.4-2C43.7,8,45,7.8,46.4,7.8c1.4,0,2.7,0.2,3.8,0.7
	c1.1,0.5,2,1.2,2.6,2.1c0.6,0.9,1,2.1,1,3.6v0.8H50v-0.8c0-0.8-0.2-1.4-0.5-1.8c-0.3-0.5-0.7-0.8-1.2-1c-0.5-0.2-1.2-0.3-2-0.3
	c-1.1,0-2,0.2-2.5,0.7c-0.5,0.4-0.8,1-0.8,1.7c0,0.5,0.1,0.9,0.4,1.2c0.3,0.3,0.7,0.6,1.2,0.8c0.5,0.2,1.2,0.4,2,0.6l0.7,0.1
	c1.4,0.3,2.6,0.7,3.7,1.2c1.1,0.5,1.9,1.1,2.5,1.9c0.6,0.8,0.9,1.8,0.9,3s-0.3,2.3-0.9,3.2c-0.6,0.9-1.5,1.6-2.6,2.1
	C49.6,28.1,48.3,28.4,46.7,28.4z M56.3,28V14h3.5v1.8h0.5c0.2-0.5,0.7-1,1.3-1.4c0.6-0.5,1.6-0.7,2.8-0.7c1.1,0,2,0.3,2.9,0.8
	c0.8,0.5,1.5,1.2,1.9,2.1c0.5,0.9,0.7,1.9,0.7,3.1V28h-3.6v-8.1c0-1.1-0.3-1.8-0.8-2.4c-0.5-0.5-1.2-0.8-2.2-0.8
	c-1.1,0-1.9,0.4-2.5,1.1c-0.6,0.7-0.9,1.7-0.9,3V28H56.3z M77.2,28.4c-1,0-1.9-0.2-2.7-0.5c-0.8-0.4-1.4-0.9-1.9-1.5
	c-0.5-0.7-0.7-1.5-0.7-2.5c0-1,0.2-1.8,0.7-2.4c0.5-0.7,1.1-1.1,1.9-1.5c0.8-0.3,1.8-0.5,2.8-0.5h3.8v-0.8c0-0.7-0.2-1.2-0.6-1.6
	c-0.4-0.4-1.1-0.7-2-0.7c-0.9,0-1.5,0.2-2,0.6c-0.4,0.4-0.7,0.9-0.8,1.6l-3.3-1.1c0.2-0.7,0.6-1.4,1.1-2c0.5-0.6,1.2-1.1,2-1.4
	c0.8-0.4,1.9-0.6,3.1-0.6c1.8,0,3.3,0.5,4.4,1.4c1.1,0.9,1.6,2.3,1.6,4v5.2c0,0.6,0.3,0.8,0.8,0.8h1.1V28h-2.4
	c-0.7,0-1.3-0.2-1.7-0.5s-0.7-0.8-0.7-1.4v0h-0.5c-0.1,0.2-0.2,0.5-0.5,0.9c-0.3,0.4-0.7,0.7-1.2,1C79,28.3,78.2,28.4,77.2,28.4z
	 M77.8,25.5c1,0,1.8-0.3,2.4-0.8c0.6-0.6,1-1.3,1-2.2v-0.3h-3.6c-0.7,0-1.2,0.1-1.6,0.4c-0.4,0.3-0.6,0.7-0.6,1.2
	c0,0.5,0.2,0.9,0.6,1.2C76.5,25.4,77.1,25.5,77.8,25.5z M88.4,33.7V14h3.5v1.7h0.5c0.3-0.5,0.8-1,1.5-1.4c0.7-0.4,1.6-0.7,2.9-0.7
	c1.1,0,2.2,0.3,3.1,0.8c1,0.5,1.7,1.4,2.3,2.4c0.6,1.1,0.9,2.4,0.9,3.9v0.5c0,1.5-0.3,2.8-0.9,3.9c-0.6,1.1-1.4,1.9-2.3,2.5
	c-1,0.5-2,0.8-3.1,0.8c-0.8,0-1.6-0.1-2.1-0.3c-0.6-0.2-1-0.4-1.4-0.7c-0.3-0.3-0.6-0.6-0.8-1h-0.5v7.3H88.4z M95.7,25.3
	c1.1,0,2-0.3,2.7-1c0.7-0.7,1.1-1.8,1.1-3.1v-0.3c0-1.4-0.4-2.4-1.1-3.1c-0.7-0.7-1.6-1.1-2.7-1.1c-1.1,0-2,0.4-2.7,1.1
	c-0.7,0.7-1.1,1.7-1.1,3.1v0.3c0,1.4,0.4,2.4,1.1,3.1C93.7,24.9,94.6,25.3,95.7,25.3z M104.9,21v-0.5c0-1.5,0.3-2.7,0.9-3.8
	c0.6-1.1,1.4-1.9,2.3-2.4c1-0.6,2-0.8,3.2-0.8c1.3,0,2.3,0.2,2.9,0.7c0.7,0.5,1.1,0.9,1.4,1.4h0.5V14h3.5v16.5c0,1-0.3,1.7-0.8,2.3
	c-0.6,0.6-1.3,0.9-2.3,0.9h-9.4v-3.1h8.1c0.5,0,0.8-0.3,0.8-0.8V26h-0.5c-0.2,0.3-0.5,0.6-0.8,0.9c-0.3,0.3-0.8,0.6-1.4,0.8
	c-0.6,0.2-1.3,0.3-2.1,0.3c-1.1,0-2.2-0.3-3.2-0.8c-1-0.6-1.7-1.4-2.3-2.4C105.1,23.8,104.9,22.5,104.9,21z M112.3,24.9
	c1.1,0,2-0.3,2.7-1c0.7-0.7,1.1-1.7,1.1-2.9v-0.3c0-1.3-0.4-2.3-1.1-2.9c-0.7-0.7-1.6-1-2.7-1c-1.1,0-2,0.3-2.7,1
	c-0.7,0.7-1.1,1.7-1.1,2.9V21c0,1.3,0.4,2.2,1.1,2.9C110.3,24.6,111.2,24.9,112.3,24.9z M122.7,28V14h3.5v1.6h0.5
	c0.2-0.6,0.5-1,1-1.2c0.5-0.3,1.1-0.4,1.7-0.4h1.7v3.2h-1.8c-0.9,0-1.6,0.2-2.2,0.7c-0.6,0.5-0.9,1.2-0.9,2.2v8H122.7z M137.1,28.4
	c-1,0-1.9-0.2-2.7-0.5c-0.8-0.4-1.4-0.9-1.9-1.5c-0.5-0.7-0.7-1.5-0.7-2.5c0-1,0.2-1.8,0.7-2.4c0.5-0.7,1.1-1.1,1.9-1.5
	c0.8-0.3,1.8-0.5,2.8-0.5h3.8v-0.8c0-0.7-0.2-1.2-0.6-1.6c-0.4-0.4-1.1-0.7-2-0.7c-0.9,0-1.5,0.2-2,0.6c-0.4,0.4-0.7,0.9-0.8,1.6
	l-3.3-1.1c0.2-0.7,0.6-1.4,1.1-2c0.5-0.6,1.2-1.1,2-1.4c0.8-0.4,1.9-0.6,3.1-0.6c1.8,0,3.3,0.5,4.4,1.4c1.1,0.9,1.6,2.3,1.6,4v5.2
	c0,0.6,0.3,0.8,0.8,0.8h1.1V28h-2.4c-0.7,0-1.3-0.2-1.7-0.5c-0.5-0.3-0.7-0.8-0.7-1.4v0h-0.5c-0.1,0.2-0.2,0.5-0.5,0.9
	c-0.3,0.4-0.7,0.7-1.2,1C138.9,28.3,138.1,28.4,137.1,28.4z M137.7,25.5c1,0,1.8-0.3,2.4-0.8c0.6-0.6,1-1.3,1-2.2v-0.3h-3.6
	c-0.7,0-1.2,0.1-1.6,0.4c-0.4,0.3-0.6,0.7-0.6,1.2c0,0.5,0.2,0.9,0.6,1.2C136.4,25.4,137,25.5,137.7,25.5z M148.2,28V14h3.5v1.5h0.5
	c0.2-0.5,0.6-0.9,1.2-1.2c0.6-0.4,1.3-0.5,2.2-0.5c1,0,1.8,0.2,2.4,0.6c0.6,0.4,1.1,0.9,1.4,1.5h0.5c0.3-0.6,0.8-1.1,1.4-1.5
	c0.6-0.4,1.4-0.6,2.5-0.6c0.9,0,1.7,0.2,2.3,0.6c0.7,0.4,1.3,0.9,1.7,1.7c0.4,0.7,0.6,1.7,0.6,2.8V28H165v-9c0-0.8-0.2-1.3-0.6-1.7
	c-0.4-0.4-1-0.6-1.7-0.6c-0.8,0-1.4,0.3-1.9,0.8c-0.4,0.5-0.7,1.2-0.7,2.2V28h-3.6v-9c0-0.8-0.2-1.3-0.6-1.7c-0.4-0.4-1-0.6-1.7-0.6
	c-0.8,0-1.4,0.3-1.9,0.8c-0.4,0.5-0.7,1.2-0.7,2.2V28H148.2z"/>
<path class="st1" d="M-149.2,2.6c-1.5,0-2.9-0.3-4-0.8c-1.2-0.5-2.1-1.3-2.7-2.3c-0.7-1-1-2.2-1-3.7v-0.8h3.7v0.8
	c0,1.2,0.4,2.1,1.1,2.7c0.7,0.6,1.7,0.9,3,0.9c1.3,0,2.2-0.3,2.9-0.8c0.6-0.5,1-1.2,1-2c0-0.5-0.2-1-0.5-1.3
	c-0.3-0.3-0.8-0.6-1.4-0.8c-0.6-0.2-1.3-0.4-2.1-0.6l-0.7-0.1c-1.4-0.3-2.5-0.7-3.5-1.1c-1-0.5-1.7-1.1-2.2-1.8
	c-0.5-0.8-0.8-1.7-0.8-2.9s0.3-2.2,0.8-3.1c0.6-0.9,1.4-1.5,2.4-2c1.1-0.5,2.3-0.7,3.7-0.7c1.4,0,2.7,0.2,3.8,0.7
	c1.1,0.5,2,1.2,2.6,2.1c0.6,0.9,1,2.1,1,3.6v0.8h-3.7v-0.8c0-0.8-0.2-1.4-0.5-1.8c-0.3-0.5-0.7-0.8-1.2-1c-0.5-0.2-1.2-0.3-2-0.3
	c-1.1,0-2,0.2-2.5,0.7c-0.5,0.4-0.8,1-0.8,1.7c0,0.5,0.1,0.9,0.4,1.2c0.3,0.3,0.7,0.6,1.2,0.8c0.5,0.2,1.2,0.4,2,0.6l0.7,0.1
	c1.4,0.3,2.6,0.7,3.7,1.2c1.1,0.5,1.9,1.1,2.5,1.9c0.6,0.8,0.9,1.8,0.9,3s-0.3,2.3-0.9,3.2c-0.6,0.9-1.5,1.6-2.6,2.1
	C-146.4,2.3-147.7,2.6-149.2,2.6z M-139.7,2.2v-14h3.5v1.8h0.5c0.2-0.5,0.7-1,1.3-1.4c0.6-0.5,1.6-0.7,2.8-0.7c1.1,0,2,0.3,2.9,0.8
	c0.8,0.5,1.5,1.2,1.9,2.1c0.5,0.9,0.7,1.9,0.7,3.1v8.4h-3.6v-8.1c0-1.1-0.3-1.8-0.8-2.4c-0.5-0.5-1.2-0.8-2.2-0.8
	c-1.1,0-1.9,0.4-2.5,1.1c-0.6,0.7-0.9,1.7-0.9,3v7.1H-139.7z M-118.8,2.6c-1,0-1.9-0.2-2.7-0.5c-0.8-0.4-1.4-0.9-1.9-1.5
	c-0.5-0.7-0.7-1.5-0.7-2.5c0-1,0.2-1.8,0.7-2.4c0.5-0.7,1.1-1.1,1.9-1.5c0.8-0.3,1.8-0.5,2.8-0.5h3.8v-0.8c0-0.7-0.2-1.2-0.6-1.6
	c-0.4-0.4-1.1-0.7-2-0.7c-0.9,0-1.5,0.2-2,0.6c-0.4,0.4-0.7,0.9-0.8,1.6l-3.3-1.1c0.2-0.7,0.6-1.4,1.1-2c0.5-0.6,1.2-1.1,2-1.4
	c0.8-0.4,1.9-0.6,3.1-0.6c1.8,0,3.3,0.5,4.4,1.4c1.1,0.9,1.6,2.3,1.6,4v5.2c0,0.6,0.3,0.8,0.8,0.8h1.1v2.9h-2.4
	c-0.7,0-1.3-0.2-1.7-0.5s-0.7-0.8-0.7-1.4v0h-0.5c-0.1,0.2-0.2,0.5-0.5,0.9c-0.3,0.4-0.7,0.7-1.2,1C-117,2.4-117.8,2.6-118.8,2.6z
	 M-118.1-0.3c1,0,1.8-0.3,2.4-0.8c0.6-0.6,1-1.3,1-2.2v-0.3h-3.6c-0.7,0-1.2,0.1-1.6,0.4c-0.4,0.3-0.6,0.7-0.6,1.2
	c0,0.5,0.2,0.9,0.6,1.2C-119.5-0.5-118.9-0.3-118.1-0.3z M-107.6,7.8v-19.7h3.5v1.7h0.5c0.3-0.5,0.8-1,1.5-1.4
	c0.7-0.4,1.6-0.7,2.9-0.7c1.1,0,2.2,0.3,3.1,0.8c1,0.5,1.7,1.4,2.3,2.4c0.6,1.1,0.9,2.4,0.9,3.9v0.5c0,1.5-0.3,2.8-0.9,3.9
	c-0.6,1.1-1.4,1.9-2.3,2.5c-1,0.5-2,0.8-3.1,0.8c-0.8,0-1.6-0.1-2.1-0.3c-0.6-0.2-1-0.4-1.4-0.7c-0.3-0.3-0.6-0.6-0.8-1h-0.5v7.3
	H-107.6z M-100.3-0.6c1.1,0,2-0.3,2.7-1c0.7-0.7,1.1-1.8,1.1-3.1V-5c0-1.4-0.4-2.4-1.1-3.1c-0.7-0.7-1.6-1.1-2.7-1.1
	c-1.1,0-2,0.4-2.7,1.1c-0.7,0.7-1.1,1.7-1.1,3.1v0.3c0,1.4,0.4,2.4,1.1,3.1C-102.3-0.9-101.4-0.6-100.3-0.6z M-91.1-4.8v-0.5
	c0-1.5,0.3-2.7,0.9-3.8c0.6-1.1,1.4-1.9,2.3-2.4c1-0.6,2-0.8,3.2-0.8c1.3,0,2.3,0.2,2.9,0.7c0.7,0.5,1.1,0.9,1.4,1.4h0.5v-1.7h3.5
	V4.6c0,1-0.3,1.7-0.8,2.3c-0.6,0.6-1.3,0.9-2.3,0.9h-9.4V4.7h8.1c0.5,0,0.8-0.3,0.8-0.8V0.2h-0.5c-0.2,0.3-0.5,0.6-0.8,0.9
	c-0.3,0.3-0.8,0.6-1.4,0.8c-0.6,0.2-1.3,0.3-2.1,0.3c-1.1,0-2.2-0.3-3.2-0.8c-1-0.6-1.7-1.4-2.3-2.4C-90.8-2.1-91.1-3.3-91.1-4.8z
	 M-83.7-0.9c1.1,0,2-0.3,2.7-1c0.7-0.7,1.1-1.7,1.1-2.9v-0.3c0-1.3-0.4-2.3-1.1-2.9c-0.7-0.7-1.6-1-2.7-1c-1.1,0-2,0.3-2.7,1
	c-0.7,0.7-1.1,1.7-1.1,2.9v0.3c0,1.3,0.4,2.2,1.1,2.9C-85.7-1.2-84.8-0.9-83.7-0.9z M-73.3,2.2v-14h3.5v1.6h0.5c0.2-0.6,0.5-1,1-1.2
	c0.5-0.3,1.1-0.4,1.7-0.4h1.7v3.2h-1.8c-0.9,0-1.6,0.2-2.2,0.7c-0.6,0.5-0.9,1.2-0.9,2.2v8H-73.3z M-58.9,2.6c-1,0-1.9-0.2-2.7-0.5
	c-0.8-0.4-1.4-0.9-1.9-1.5c-0.5-0.7-0.7-1.5-0.7-2.5c0-1,0.2-1.8,0.7-2.4c0.5-0.7,1.1-1.1,1.9-1.5c0.8-0.3,1.8-0.5,2.8-0.5h3.8v-0.8
	c0-0.7-0.2-1.2-0.6-1.6c-0.4-0.4-1.1-0.7-2-0.7c-0.9,0-1.5,0.2-2,0.6c-0.4,0.4-0.7,0.9-0.8,1.6l-3.3-1.1c0.2-0.7,0.6-1.4,1.1-2
	c0.5-0.6,1.2-1.1,2-1.4c0.8-0.4,1.9-0.6,3.1-0.6c1.8,0,3.3,0.5,4.4,1.4c1.1,0.9,1.6,2.3,1.6,4v5.2c0,0.6,0.3,0.8,0.8,0.8h1.1v2.9
	h-2.4c-0.7,0-1.3-0.2-1.7-0.5c-0.5-0.3-0.7-0.8-0.7-1.4v0h-0.5c-0.1,0.2-0.2,0.5-0.5,0.9c-0.3,0.4-0.7,0.7-1.2,1
	C-57.1,2.4-57.9,2.6-58.9,2.6z M-58.3-0.3c1,0,1.8-0.3,2.4-0.8c0.6-0.6,1-1.3,1-2.2v-0.3h-3.6c-0.7,0-1.2,0.1-1.6,0.4
	c-0.4,0.3-0.6,0.7-0.6,1.2c0,0.5,0.2,0.9,0.6,1.2C-59.6-0.5-59-0.3-58.3-0.3z M-47.7,2.2v-14h3.5v1.5h0.5c0.2-0.5,0.6-0.9,1.2-1.2
	c0.6-0.4,1.3-0.5,2.2-0.5c1,0,1.8,0.2,2.4,0.6c0.6,0.4,1.1,0.9,1.4,1.5h0.5c0.3-0.6,0.8-1.1,1.4-1.5c0.6-0.4,1.4-0.6,2.5-0.6
	c0.9,0,1.7,0.2,2.3,0.6c0.7,0.4,1.3,0.9,1.7,1.7c0.4,0.7,0.6,1.7,0.6,2.8v9.2H-31v-9c0-0.8-0.2-1.3-0.6-1.7c-0.4-0.4-1-0.6-1.7-0.6
	c-0.8,0-1.4,0.3-1.9,0.8c-0.4,0.5-0.7,1.2-0.7,2.2v8.3h-3.6v-9c0-0.8-0.2-1.3-0.6-1.7c-0.4-0.4-1-0.6-1.7-0.6
	c-0.8,0-1.4,0.3-1.9,0.8c-0.4,0.5-0.7,1.2-0.7,2.2v8.3H-47.7z"/>
<text transform="matrix(1 0 0 1 31.9615 24.5585)" class="st2 st3 st4">git connect</text>
<g class="st5">
	<linearGradient id="SVGID_2_" gradientUnits="userSpaceOnUse" x1="32.8638" y1="20.7085" x2="45.8433" y2="20.7085">
		<stop  offset="0" style="stop-color:#877EFF"/>
		<stop  offset="0.4615" style="stop-color:#685DFF"/>
		<stop  offset="1" style="stop-color:#3121FF"/>
	</linearGradient>
	<path class="st6" d="M45.8,19.7L45.8,19.7v7.1c0,0.8-0.3,1.5-0.8,2s-1.2,0.8-2,0.8h-7.9v-2.4H43c0.1,0,0.2,0,0.3-0.1
		c0.1-0.1,0.1-0.2,0.1-0.3v-2.2h-7.7c-0.8,0-1.5-0.3-2-0.8c-0.6-0.6-0.8-1.2-0.8-2v-7c0-0.8,0.3-1.5,0.8-2c0.6-0.6,1.2-0.8,2-0.8H43
		c0.8,0,1.5,0.3,2,0.8s0.8,1.2,0.8,2V19.7z M35.7,22.2H43c0.1,0,0.2,0,0.3-0.1c0.1-0.1,0.1-0.2,0.1-0.3v-7c0-0.1,0-0.2-0.1-0.3
		c-0.1-0.1-0.2-0.1-0.3-0.1h-7.3c-0.1,0-0.2,0-0.3,0.1c-0.1,0.1-0.1,0.2-0.1,0.3v7c0,0.1,0,0.2,0.1,0.3
		C35.5,22.1,35.6,22.2,35.7,22.2z"/>
	<linearGradient id="SVGID_3_" gradientUnits="userSpaceOnUse" x1="48.1313" y1="16.0886" x2="50.5073" y2="16.0886">
		<stop  offset="0" style="stop-color:#877EFF"/>
		<stop  offset="0.4615" style="stop-color:#685DFF"/>
		<stop  offset="1" style="stop-color:#3121FF"/>
	</linearGradient>
	<path class="st7" d="M48.1,7.6h2.4V10h-2.4V7.6z M48.1,24.6V11.8h2.4v12.8H48.1z"/>
	<linearGradient id="SVGID_4_" gradientUnits="userSpaceOnUse" x1="52.729" y1="16.0886" x2="60.3413" y2="16.0886">
		<stop  offset="0" style="stop-color:#877EFF"/>
		<stop  offset="0.4615" style="stop-color:#685DFF"/>
		<stop  offset="1" style="stop-color:#3121FF"/>
	</linearGradient>
	<path class="st8" d="M60.3,14.2h-5.2v7.5c0,0.1,0,0.2,0.1,0.3c0.1,0.1,0.2,0.1,0.3,0.1h4.8v2.4h-4.8c-0.8,0-1.5-0.3-2-0.8
		s-0.8-1.2-0.8-2v-7v-7h2.4v4.2h5.2V14.2z"/>
	<linearGradient id="SVGID_5_" gradientUnits="userSpaceOnUse" x1="68.0845" y1="18.1787" x2="81.064" y2="18.1787">
		<stop  offset="0" style="stop-color:#877EFF"/>
		<stop  offset="0.4615" style="stop-color:#685DFF"/>
		<stop  offset="1" style="stop-color:#3121FF"/>
	</linearGradient>
	<path class="st9" d="M70.9,22.2h10.1v2.4H70.9c-0.8,0-1.5-0.3-2-0.8s-0.8-1.2-0.8-2v-7c0-0.8,0.3-1.5,0.8-2s1.2-0.8,2-0.8H81v2.4
		H70.9c-0.1,0-0.2,0-0.3,0.1c-0.1,0.1-0.1,0.2-0.1,0.3v7c0,0.1,0,0.2,0.1,0.3C70.7,22.1,70.8,22.2,70.9,22.2z"/>
	<linearGradient id="SVGID_6_" gradientUnits="userSpaceOnUse" x1="83.3745" y1="18.1787" x2="96.3545" y2="18.1787">
		<stop  offset="0" style="stop-color:#877EFF"/>
		<stop  offset="0.4615" style="stop-color:#685DFF"/>
		<stop  offset="1" style="stop-color:#3121FF"/>
	</linearGradient>
	<path class="st10" d="M86.2,11.8h7.3c0.8,0,1.5,0.3,2,0.8s0.8,1.2,0.8,2v7c0,0.8-0.3,1.5-0.8,2s-1.2,0.8-2,0.8h-7.3
		c-0.8,0-1.5-0.3-2-0.8s-0.8-1.2-0.8-2v-7c0-0.8,0.3-1.5,0.8-2S85.4,11.8,86.2,11.8z M93.5,14.2h-7.3c-0.1,0-0.2,0-0.3,0.1
		c-0.1,0.1-0.1,0.2-0.1,0.3v7c0,0.1,0,0.2,0.1,0.3c0.1,0.1,0.2,0.1,0.3,0.1h7.3c0.1,0,0.2,0,0.3-0.1c0.1-0.1,0.1-0.2,0.1-0.3v-7
		c0-0.1,0-0.2-0.1-0.3C93.7,14.2,93.6,14.2,93.5,14.2z"/>
	<linearGradient id="SVGID_7_" gradientUnits="userSpaceOnUse" x1="98.335" y1="18.1787" x2="111.3145" y2="18.1787">
		<stop  offset="0" style="stop-color:#877EFF"/>
		<stop  offset="0.4615" style="stop-color:#685DFF"/>
		<stop  offset="1" style="stop-color:#3121FF"/>
	</linearGradient>
	<path class="st11" d="M108.5,11.8c0.8,0,1.5,0.3,2,0.8s0.8,1.2,0.8,2v9.9h-2.4v-9.9c0-0.1,0-0.2-0.1-0.3c-0.1-0.1-0.2-0.1-0.3-0.1
		h-7.3c-0.1,0-0.2,0-0.3,0.1c-0.1,0.1-0.1,0.2-0.1,0.3v9.9h-2.4V11.8H108.5z"/>
	<linearGradient id="SVGID_8_" gradientUnits="userSpaceOnUse" x1="113.6475" y1="18.1787" x2="126.627" y2="18.1787">
		<stop  offset="0" style="stop-color:#877EFF"/>
		<stop  offset="0.4615" style="stop-color:#685DFF"/>
		<stop  offset="1" style="stop-color:#3121FF"/>
	</linearGradient>
	<path class="st12" d="M123.8,11.8c0.8,0,1.5,0.3,2,0.8s0.8,1.2,0.8,2v9.9h-2.4v-9.9c0-0.1,0-0.2-0.1-0.3c-0.1-0.1-0.2-0.1-0.3-0.1
		h-7.3c-0.1,0-0.2,0-0.3,0.1c-0.1,0.1-0.1,0.2-0.1,0.3v9.9h-2.4V11.8H123.8z"/>
	<linearGradient id="SVGID_9_" gradientUnits="userSpaceOnUse" x1="128.8926" y1="18.1787" x2="141.8721" y2="18.1787">
		<stop  offset="0" style="stop-color:#877EFF"/>
		<stop  offset="0.4615" style="stop-color:#685DFF"/>
		<stop  offset="1" style="stop-color:#3121FF"/>
	</linearGradient>
	<path class="st13" d="M139,11.8c0.8,0,1.5,0.3,2,0.8s0.8,1.2,0.8,2v4.7h-10.6v2.3c0,0.1,0,0.2,0.1,0.3c0.1,0.1,0.2,0.1,0.3,0.1
		h10.1v2.4h-10.1c-0.8,0-1.5-0.3-2-0.8s-0.8-1.2-0.8-2v-7c0-0.8,0.3-1.5,0.8-2s1.2-0.8,2-0.8H139z M131.3,17h8.2v-2.3
		c0-0.1,0-0.2-0.1-0.3c-0.1-0.1-0.2-0.1-0.3-0.1h-7.3c-0.1,0-0.2,0-0.3,0.1c-0.1,0.1-0.1,0.2-0.1,0.3V17z"/>
	<linearGradient id="SVGID_10_" gradientUnits="userSpaceOnUse" x1="143.8965" y1="18.1787" x2="156.876" y2="18.1787">
		<stop  offset="0" style="stop-color:#877EFF"/>
		<stop  offset="0.4615" style="stop-color:#685DFF"/>
		<stop  offset="1" style="stop-color:#3121FF"/>
	</linearGradient>
	<path class="st14" d="M146.8,22.2h10.1v2.4h-10.1c-0.8,0-1.5-0.3-2-0.8s-0.8-1.2-0.8-2v-7c0-0.8,0.3-1.5,0.8-2s1.2-0.8,2-0.8h10.1
		v2.4h-10.1c-0.1,0-0.2,0-0.3,0.1c-0.1,0.1-0.1,0.2-0.1,0.3v7c0,0.1,0,0.2,0.1,0.3C146.5,22.1,146.6,22.2,146.8,22.2z"/>
	<linearGradient id="SVGID_11_" gradientUnits="userSpaceOnUse" x1="158.791" y1="16.0886" x2="166.4033" y2="16.0886">
		<stop  offset="0" style="stop-color:#877EFF"/>
		<stop  offset="0.4615" style="stop-color:#685DFF"/>
		<stop  offset="1" style="stop-color:#3121FF"/>
	</linearGradient>
	<path class="st15" d="M166.4,14.2h-5.2v7.5c0,0.1,0,0.2,0.1,0.3c0.1,0.1,0.2,0.1,0.3,0.1h4.8v2.4h-4.8c-0.8,0-1.5-0.3-2-0.8
		s-0.8-1.2-0.8-2v-7v-7h2.4v4.2h5.2V14.2z"/>
</g>
</svg>
