<svg xmlns="http://www.w3.org/2000/svg" width="600" height="600" viewBox="0 0 600 600" version="1.1"><path d="M 151.132 249.491 C 138.511 256.121, 133 264.605, 133 277.407 C 133 290.011, 139.158 299.710, 151.376 306.350 C 155.459 308.569, 157.512 309, 164 309 C 172.938 309, 178.314 306.690, 185.870 299.600 C 201.567 284.873, 196.409 257.533, 176.379 249.298 C 173.975 248.309, 172.006 247.162, 172.004 246.750 C 172.002 246.338, 168.738 246.033, 164.750 246.073 C 158.545 246.136, 156.582 246.629, 151.132 249.491 M 155.933 251.950 C 149.936 253.769, 143.529 259.361, 140.135 265.736 C 135.439 274.557, 138.083 289.101, 145.661 296.136 C 151.115 301.199, 154.832 302.482, 164.078 302.491 C 171.886 302.499, 173.099 302.228, 177.578 299.471 C 187.202 293.548, 192.067 282.364, 189.612 271.807 C 187.385 262.226, 181.590 255.410, 173.090 252.371 C 169.137 250.958, 159.948 250.733, 155.933 251.950 M 176.011 261.487 C 174.349 263.489, 175.456 266, 178 266 C 179.135 266, 180.324 265.319, 180.643 264.487 C 181.218 262.990, 179.457 260, 178 260 C 177.585 260, 176.689 260.669, 176.011 261.487 M 158.271 264.915 C 148.526 269.450, 147.095 282.210, 155.581 288.885 C 163.901 295.430, 176.555 290.124, 177.742 279.593 C 178.392 273.830, 176.746 269.806, 172.375 266.472 C 167.775 262.964, 163.482 262.490, 158.271 264.915 M 161 268.113 C 150.257 272.216, 154.776 288.595, 166.030 286.344 C 172.880 284.974, 175.526 275.246, 170.354 270.452 C 168.899 269.104, 167.360 268, 166.936 268 C 166.511 268, 165.564 267.811, 164.832 267.579 C 164.099 267.348, 162.375 267.588, 161 268.113" stroke="none" fill="#786efc" fill-rule="evenodd"/><path d="M 0 300.002 L 0 600.003 300.250 599.752 L 600.500 599.500 600.752 299.750 L 601.003 0 300.502 0 L 0 0 0 300.002 M 0.493 300.500 C 0.493 465.500, 0.609 532.851, 0.750 450.169 C 0.891 367.487, 0.891 232.487, 0.750 150.169 C 0.609 67.851, 0.493 135.500, 0.493 300.500 M 151.132 249.491 C 138.511 256.121, 133 264.605, 133 277.407 C 133 290.011, 139.158 299.710, 151.376 306.350 C 155.459 308.569, 157.512 309, 164 309 C 172.938 309, 178.314 306.690, 185.870 299.600 C 201.567 284.873, 196.409 257.533, 176.379 249.298 C 173.975 248.309, 172.006 247.162, 172.004 246.750 C 172.002 246.338, 168.738 246.033, 164.750 246.073 C 158.545 246.136, 156.582 246.629, 151.132 249.491 M 155.933 251.950 C 149.936 253.769, 143.529 259.361, 140.135 265.736 C 135.439 274.557, 138.083 289.101, 145.661 296.136 C 151.115 301.199, 154.832 302.482, 164.078 302.491 C 171.886 302.499, 173.099 302.228, 177.578 299.471 C 187.202 293.548, 192.067 282.364, 189.612 271.807 C 187.385 262.226, 181.590 255.410, 173.090 252.371 C 169.137 250.958, 159.948 250.733, 155.933 251.950 M 176.011 261.487 C 174.349 263.489, 175.456 266, 178 266 C 179.135 266, 180.324 265.319, 180.643 264.487 C 181.218 262.990, 179.457 260, 178 260 C 177.585 260, 176.689 260.669, 176.011 261.487 M 158.271 264.915 C 148.526 269.450, 147.095 282.210, 155.581 288.885 C 163.901 295.430, 176.555 290.124, 177.742 279.593 C 178.392 273.830, 176.746 269.806, 172.375 266.472 C 167.775 262.964, 163.482 262.490, 158.271 264.915 M 161 268.113 C 150.257 272.216, 154.776 288.595, 166.030 286.344 C 172.880 284.974, 175.526 275.246, 170.354 270.452 C 168.899 269.104, 167.360 268, 166.936 268 C 166.511 268, 165.564 267.811, 164.832 267.579 C 164.099 267.348, 162.375 267.588, 161 268.113" stroke="none" fill="#fbfbfc" fill-rule="evenodd"/></svg>